inDegrees=no
num_controls=7
num_derivatives=13
num_iterations=128
num_multipliers=7
num_parameters=0
num_slacks=7
num_states=26
objective=0.542255
objective_accelerations=0.065599
objective_balance=0.003416
objective_effort=0.048621
objective_height=0.415524
objective_ligament=0.009096
solver_duration=1303.635673
status=Solve_Succeeded
success=true
DataType=double
version=3
OpenSimVersion=4.5
endheader
time	/jointset/ground_pelvis/pelvis_tilt/value	/jointset/ground_pelvis/pelvis_tx/value	/jointset/ground_pelvis/pelvis_ty/value	/jointset/hip_r/hip_flexion_r/value	/jointset/hip_r/hip_adduction_r/value	/jointset/hip_r/hip_rotation_r/value	/jointset/back/lumbar_extension/value	/jointset/patellofemoral_r/patellar_flexion_r/value	/jointset/knee_r/knee_flexion_r/value	/jointset/knee_r/knee_adduction_r/value	/jointset/knee_r/knee_rotation_r/value	/jointset/ankle_r/ankle_angle_r/value	/jointset/subtalar_r/subtalar_angle_r/value	/jointset/ground_pelvis/pelvis_tilt/speed	/jointset/ground_pelvis/pelvis_tx/speed	/jointset/ground_pelvis/pelvis_ty/speed	/jointset/hip_r/hip_flexion_r/speed	/jointset/hip_r/hip_adduction_r/speed	/jointset/hip_r/hip_rotation_r/speed	/jointset/back/lumbar_extension/speed	/jointset/patellofemoral_r/patellar_flexion_r/speed	/jointset/knee_r/knee_flexion_r/speed	/jointset/knee_r/knee_adduction_r/speed	/jointset/knee_r/knee_rotation_r/speed	/jointset/ankle_r/ankle_angle_r/speed	/jointset/subtalar_r/subtalar_angle_r/speed	/forceset/tau_hip_flexion_r	/forceset/tau_hip_adduction_r	/forceset/tau_hip_rotation_r	/forceset/tau_knee_flexion_r	/forceset/tau_ankle_angle_r	/forceset/tau_subtalar_angle_r	/forceset/tau_lumbar_extension	lambda_cid13_p0	lambda_cid14_p0	lambda_cid14_p1	lambda_cid14_p2	lambda_cid14_p3	lambda_cid14_p4	lambda_cid14_p5	/jointset/ground_pelvis/pelvis_tilt/accel	/jointset/ground_pelvis/pelvis_tx/accel	/jointset/ground_pelvis/pelvis_ty/accel	/jointset/hip_r/hip_flexion_r/accel	/jointset/hip_r/hip_adduction_r/accel	/jointset/hip_r/hip_rotation_r/accel	/jointset/back/lumbar_extension/accel	/jointset/patellofemoral_r/patellar_flexion_r/accel	/jointset/knee_r/knee_flexion_r/accel	/jointset/knee_r/knee_adduction_r/accel	/jointset/knee_r/knee_rotation_r/accel	/jointset/ankle_r/ankle_angle_r/accel	/jointset/subtalar_r/subtalar_angle_r/accel	gamma_cid13_p0	gamma_cid14_p0	gamma_cid14_p1	gamma_cid14_p2	gamma_cid14_p3	gamma_cid14_p4	gamma_cid14_p5
1	-0.3487924940534835	-0.02417743498076841	0.5922210030275205	1.685120636617149	-0.2323715529024633	-0.08306983681087869	-0.4363239110119865	1.562539480886824	1.562539480886778	-0.1563824886219049	0.1708793972532026	0.4363315339368526	0.1108418870131454	-0.003274587173569044	0.002275584067438278	0.0131221286205858	-0.0322009827865802	0.002245461842181303	-0.0130483066874331	1.217553416009056e-05	-0.03757857188688466	-0.03757857188688705	-0.006350800808028093	-0.0008357638607505245	-0.002137561915693607	0.003287936573408278	-0.3246312107756001	0.01553493592939123	-0.002183495109827428	-0.5390379821808398	0.02316035261216782	0.006976980658514139	0.3285028949542936	-0.04241849931896056	-43.72483997078023	-7.347333941273522	4.739980542509761	20.65586179217048	-829.0792367048703	58.97835084874219	1.150352562411046	-0.02708125420924101	2.224043589041341	-6.350855818999966	0.1950140196603171	-0.2120973986092085	-0.01337246420160227	-6.159503505018077	-6.159503505018038	1.195832758272878	0.1392869051938967	-1.132852065749034	-0.1153190483333712	6.487507911683921e-09	1.182131657288385e-08	3.288659282288962e-08	4.593507635362551e-08	-6.039956404897924e-09	-7.75829108020679e-09	8.429087914874852e-08
1.01	-0.3487681281591466	-0.02415604449523261	0.5924632632749665	1.684481845958187	-0.2323393566161588	-0.08320739213263434	-0.4363239742464762	1.561856130908344	1.561856130908341	-0.156382697784967	0.1708776218160604	0.4362534215207942	0.1108688634099928	0.008159246322726618	0.002003864581824902	0.0353234684254462	-0.09554859197890805	0.004193451384655943	-0.01446136282557073	-3.566478601744447e-05	-0.09908215572410257	-0.0990821557241074	0.006309363377792187	0.0004800362719382642	-0.01349669905985848	0.002101669577958173	-0.3244773859653029	0.0155878064231313	-0.002127451481289311	-0.5386667040146073	0.02308635949725597	0.006970719382417769	0.3283633588465402	-0.04243021496665212	-43.72971067421057	-7.351313080145549	4.741080051900383	20.65439753894058	-828.7591935733717	58.93446618233725	1.141625863195235	-0.02701836211857832	2.217207723975912	-6.325425054246656	0.1946558996002018	-0.1056905946006358	-0.002116168977389324	-6.144398660198124	-6.144398660198528	1.301162527007617	0.127663831627579	-1.139210190991396	-0.1211039056040423	1.516173801339383e-08	2.942093591601495e-08	8.648929710947806e-08	1.200987287393147e-07	-1.885891106548482e-08	-1.782707490512934e-08	2.19169827339272e-07
1.02	-0.3486290785058566	-0.02413733141782924	0.5929273426300147	1.68320983689032	-0.232287687538819	-0.08335903419040443	-0.4363248411547671	1.560558022524067	1.560558022524105	-0.156256294450514	0.1708889918331106	0.4360613646028402	0.1108838124607949	0.01966216461727988	0.001740102440950703	0.05748595014100494	-0.1588446645671353	0.006140020049497589	-0.01586565389109106	-0.0001485592282550544	-0.1605302530462999	-0.1605302530463076	0.01897169869445402	0.001793326977475476	-0.02492646229367091	0.0008824673643798512	-0.3243235611550135	0.01564067691687185	-0.002071407852794088	-0.5382954258483766	0.02301236638234588	0.006964458106323907	0.3282238227387796	-0.04245190809806159	-43.74221044738702	-7.351292721485613	4.735447372791904	20.67857244817782	-828.5507966833991	58.92904728668083	1.164169522062572	-0.02548978526141182	2.216271971181011	-6.340548498179838	0.1947298441337197	-0.2103443840857496	-0.02638328861354612	-6.148406202013971	-6.148406202014018	1.196266984441186	0.1387850197635807	-1.146977283678561	-0.1219060919590171	2.363462451482398e-08	4.460761108863598e-08	1.365197320211282e-07	1.914815298959893e-07	-2.709773946192936e-08	-2.805302343067295e-08	3.462864175344975e-07
1.03	-0.3483746737905202	-0.02412116018630068	0.5936128140295983	1.681305205185054	-0.2322165634873571	-0.08352475794038114	-0.4363269534757293	1.558645698907831	1.558645698907818	-0.1560033256406817	0.1709134287165416	0.4357545687443144	0.1108863653372452	0.03122839426165088	0.001501092239295574	0.07959817920537562	-0.2220657560730374	0.008084299184104164	-0.01727955363905237	-0.0002641623017204317	-0.2219266051883864	-0.221926605188378	0.03162185798672191	0.003087119806526784	-0.03645311033619742	-0.000381192714377613	-0.3240634525890096	0.01568726816963066	-0.001910079261243672	-0.5377782619920651	0.02314446361194171	0.006919677873108088	0.3280660390743833	-0.04248197501961101	-43.67814744461884	-7.354436253746403	4.73013752175871	20.59683222826202	-828.1840889787971	58.90699612663339	1.154302929607713	-0.02207148907856382	2.20716807040941	-6.310491050301778	0.1942387779596613	-0.106959567471257	-0.002687417281102153	-6.134076440897505	-6.134076440895116	1.299348700105204	0.1237096599797474	-1.158567267114271	-0.1299308649008404	3.210545648972066e-08	5.976966438196608e-08	1.865137152044627e-07	2.628359550197147e-07	-3.528983187608671e-08	-3.828057567765147e-08	4.733237999950771e-07
1.04	-0.3480043161299443	-0.02410717202708092	0.5945191016590946	1.678768842250023	-0.2321260042785836	-0.08370463004729765	-0.4363299295475125	1.556119646426057	1.556119646425993	-0.1556238635782292	0.1709506101773643	0.4353318946648478	0.1108760146330942	0.04285275366535667	0.001303487979187807	0.1016491961235128	-0.2851909105191963	0.01002705151213332	-0.01869532527981043	-0.0003213093979065365	-0.2832760261541345	-0.2832760261541111	0.04427034921841582	0.004342242455731775	-0.04810210648170736	-0.001698248755804018	-0.3238033440230236	0.01573385942238762	-0.001748750669723142	-0.5372610981357552	0.02327656084154002	0.00687489763989082	0.3279082554099698	-0.04252203389131826	-43.62185357880453	-7.353622853752978	4.718122855158738	20.54125020600391	-827.9311182185354	58.92322002934456	1.175795473929539	-0.01720859695194846	2.204029541934308	-6.321361086231183	0.1944244828182386	-0.2107187626450996	-0.01469209315752411	-6.139019966746316	-6.139019966746559	1.195933372326389	0.1310509837943157	-1.171446904275264	-0.132585284492809	3.953127589763177e-08	7.231432878393848e-08	2.326213757515377e-07	3.273129263489304e-07	-4.05002355401037e-08	-4.753178095907059e-08	5.849735107662036e-07
1.05	-0.3475175764765812	-0.02409480294205761	0.5956455518632487	1.675601794433561	-0.2320160734368271	-0.08389882854216356	-0.436332236210655	1.552980382727059	1.552980382727072	-0.1551180364134076	0.1710001611391812	0.434792221192849	0.1108521891813921	0.05448936763057678	0.001192325719912707	0.1236267129093462	-0.3481946653744643	0.01195370600693255	-0.02014782732118594	-3.514400708325468e-05	-0.3445644031528183	-0.3445644031527862	0.05689722800707847	0.005562008563321393	-0.05984273166107312	-0.003080262851749543	-0.3240082261612997	0.01586549719582255	-0.001493116922172034	-0.5364051151813404	0.02336165965760633	0.006775535722450676	0.3282883441770761	-0.04256124211705804	-43.58346837887157	-7.385520794700492	4.718029580622731	20.31080238386822	-827.8166567714816	58.84299677198631	1.156739123721902	-0.004779711458691356	2.19248153357565	-6.286269208167535	0.1910275869050048	-0.1130020033173876	0.06600274324500045	-6.121909452114558	-6.121909452113155	1.296371635021033	0.116656258331517	-1.176890575352643	-0.142932746339029	4.692443866282459e-08	8.477719978305597e-08	2.786075887162296e-07	3.915749772470676e-07	-4.561746143067882e-08	-5.675247539781597e-08	6.961423567970348e-07
1.06	-0.3469146417303853	-0.02408288741383579	0.5969913509925948	1.671805431763944	-0.2318870277193051	-0.08410764927312621	-0.4363285348425861	1.549228602680937	1.549228602681029	-0.1544858791601247	0.171061753128892	0.4341348374189394	0.1108141589338914	0.06609177223194321	0.001212776618888233	0.1455189811618842	-0.4110538811494518	0.01385002666550316	-0.02161977249990571	0.0008802969054479294	-0.4057792955789083	-0.4057792955788683	0.06953636691113629	0.00675044803452028	-0.07164416686385562	-0.004539207915439013	-0.3242131082995891	0.01599713496925427	-0.001237483174631549	-0.5355491322269259	0.0234467584736742	0.006676173805006037	0.3286684329441701	-0.04261061716398245	-43.55309659422206	-7.413502529494791	4.711235628337509	20.10663961982775	-827.8202462167548	58.80062232312561	1.168953601158818	0.009114034698167016	2.18697983527522	-6.292453270175097	0.1883577155725191	-0.2146073901139486	0.1111630111840332	-6.124323052227565	-6.124323052227994	1.198385395405426	0.1247856565161671	-1.183608908958633	-0.1479714780416016	5.261236682815771e-08	9.634680888058993e-08	3.171434483076687e-07	4.448865304055213e-07	-5.356966671630928e-08	-6.320796225678234e-08	7.84644294226198e-07
